# xmcd CD database file
#
# Track frame offsets:
#	150
#	7213
#	13987
#	17339
#	20864
#	24341
#	27768
#	35543
#	41410
#	49390
#	55015
#	62699
#	66928
#	72444
#	78220
#	88764
#	94346
#	98522
#	102197
#	105160
#	110526
#	114225
#	119820
#	125115
#	129463
#	136602
#	143993
#	149644
#	157267
#	167242
#	172214
#	176624
#	180107
#	183601
#
# Disc length: 2595 seconds
#
# Revision: 0
# Processed by: cddbd v1.5.2PL0 Copyright (c) Steve Scherf et al.
# Submitted via: CDex 1.51
#
DISCID=e10a2122
DTITLE=Various Artist - Bulles de JAZZ CD3
DYEAR=2008
DGENRE=Jazz
TTITLE0=Oh l'escargot
TTITLE1=Le p'tit pâtissier
TTITLE2=La perdrix
TTITLE3=Le père Bugeaud
TTITLE4=Un petit cochon
TTITLE5=Un petit lapin
TTITLE6=Le petit matelot
TTITLE7=Petit oiseau d'or et d'argent
TTITLE8=Petit papa
TTITLE9=Un petit pouce qui danse
TTITLE10=La petite poule grise
TTITLE11=Les petits poissons
TTITLE12=Pimpanicaille
TTITLE13=Le pouce part en voyage
TTITLE14=Promenons-nous dans les bois
TTITLE15=Quand on fait des crêpes
TTITLE16=Quand trois poules
TTITLE17=Quelle heure est-il?
TTITLE18=Qui est là?
TTITLE19=Le rat de ville et le rat des champs
TTITLE20=La samaritaine
TTITLE21=Une souris verte
TTITLE22=Sur la route de louviers
TTITLE23=Sur le pont du nord
TTITLE24=Le temps des cerises
TTITLE25=Tmbe la pluie
TTITLE26=La torpedo
TTITLE27=Le trente-et-un du mois d'août
TTITLE28=Trois esquimaux
TTITLE29=Trotte petit cheval
TTITLE30=Un, deux, trois
TTITLE31=Le vieux Mc Donald
TTITLE32=Le vitrier
TTITLE33=Youkaidi
EXTD=YEAR: 2008
EXTT0=
EXTT1=
EXTT2=
EXTT3=
EXTT4=
EXTT5=
EXTT6=
EXTT7=
EXTT8=
EXTT9=
EXTT10=
EXTT11=
EXTT12=
EXTT13=
EXTT14=
EXTT15=
EXTT16=
EXTT17=
EXTT18=
EXTT19=
EXTT20=
EXTT21=
EXTT22=
EXTT23=
EXTT24=
EXTT25=
EXTT26=
EXTT27=
EXTT28=
EXTT29=
EXTT30=
EXTT31=
EXTT32=
EXTT33=
PLAYORDER=
